<svg width="186" height="161" viewBox="0 0 186 161" fill="none" xmlns="http://www.w3.org/2000/svg">
<g id="FAB">
<g id="Ellipse 2" filter="url(#filter0_d_3_47)">
<circle cx="93" cy="83" r="58" fill="white"/>
</g>
<path id="Exclude" fill-rule="evenodd" clip-rule="evenodd" d="M93 141C125.033 141 151 115.033 151 83C151 50.9675 125.033 25 93 25C60.9675 25 35 50.9675 35 83C35 115.033 60.9675 141 93 141ZM91.411 57.1739L91.4191 57.1737C91.6416 57.1672 91.8618 57.1608 92.1072 57.1502C92.3076 57.1416 92.5014 57.1322 92.6901 57.123C93.393 57.089 94.0236 57.0585 94.6518 57.084C102.109 57.3877 108.19 60.7452 112.804 66.3161C115.776 69.9039 118.812 70.7004 122.853 68.9328C122.958 68.8865 123.073 68.8611 123.185 68.8293C123.228 68.8173 123.27 68.8044 123.311 68.7891C125.356 68.0304 125.754 66.9423 124.541 65.1096C121.187 60.041 117.263 55.5228 112.037 52.2617C108.475 50.0392 104.609 48.5912 100.436 47.5606C99.7278 47.4947 99.0343 47.4083 98.3506 47.3232L98.3494 47.323C97.0147 47.1569 95.7176 46.9954 94.4211 47.0001C85.4622 47.0324 77.2708 49.5235 70.1356 55.0539C63.2385 60.3997 59.1112 67.5172 57.1178 75.9335C56.7163 77.6287 57.3365 78.5532 59.0491 78.9447C60.5808 79.2949 62.1236 79.6079 63.6737 79.8625C65.1543 80.1056 66.3079 79.5867 66.886 78.1306C67.3557 76.9475 67.7834 75.7468 68.1991 74.5433C71.5397 64.8715 78.3563 59.3359 88.3567 57.5811C88.9484 57.4705 89.54 57.3599 90.3757 57.2135C90.7764 57.1923 91.095 57.183 91.4081 57.1739H91.411ZM128.931 79.2695C130.217 87.399 128.33 94.8303 124.275 101.742C120.159 108.757 114.324 113.908 106.729 117.176C106.578 117.228 106.429 117.279 106.282 117.329C105.452 117.615 104.682 117.879 103.897 118.085C102.682 118.402 101.972 117.862 101.657 116.675C101.383 115.646 101.094 114.622 100.805 113.597C100.632 112.981 100.458 112.364 100.287 111.747C99.6725 109.52 100.084 108.486 102.241 107.769C110.211 105.12 114.962 99.3571 117.926 91.8124C118.934 89.2455 118.335 88.319 115.6 88.3282C112.51 88.3387 109.42 88.3578 106.33 88.377C102.956 88.3978 99.5814 88.4187 96.2071 88.4283C93.2433 88.4368 92.8646 88.0397 92.8693 85.1113C92.8696 84.9289 92.8694 84.7464 92.8693 84.5639C92.8685 83.517 92.8677 82.4684 92.9477 81.427C93.0882 79.6002 93.9308 78.7571 95.7555 78.5206C96.4424 78.4316 97.1397 78.3853 97.8323 78.3845L100.906 78.3811H100.933C109.412 78.3714 117.89 78.3617 126.368 78.4103C126.966 78.4137 127.562 78.6779 128.189 78.9556C128.431 79.0629 128.678 79.1723 128.931 79.2695ZM57.5198 91.6127C59.0263 97.5367 61.628 102.897 65.7886 107.56C69.769 111.532 73.8433 115.128 79.1944 117.052C82.9324 118.396 86.6745 119.532 90.6572 119.686C92.2724 119.748 92.6989 119.302 92.4107 117.845C91.0906 111.168 88.2492 105.187 83.6227 100.202C80.0829 96.3871 75.8029 93.4637 70.9793 91.1765C69.7285 90.8705 68.4906 90.5624 67.2606 90.2562C64.5882 89.5911 61.9536 88.9353 59.3071 88.3314C57.6893 87.9622 56.9864 88.73 57.2262 90.3688C57.2723 90.684 57.3554 90.994 57.4384 91.3038C57.466 91.4067 57.4936 91.5096 57.5198 91.6127Z" fill="#66DC86"/>
</g>
<defs>
<filter id="filter0_d_3_47" x="0" y="0" width="186" height="186" filterUnits="userSpaceOnUse" color-interpolation-filters="sRGB">
<feFlood flood-opacity="0" result="BackgroundImageFix"/>
<feColorMatrix in="SourceAlpha" type="matrix" values="0 0 0 0 0 0 0 0 0 0 0 0 0 0 0 0 0 0 127 0" result="hardAlpha"/>
<feMorphology radius="5" operator="dilate" in="SourceAlpha" result="effect1_dropShadow_3_47"/>
<feOffset dy="10"/>
<feGaussianBlur stdDeviation="15"/>
<feComposite in2="hardAlpha" operator="out"/>
<feColorMatrix type="matrix" values="0 0 0 0 0 0 0 0 0 0 0 0 0 0 0 0 0 0 0.25 0"/>
<feBlend mode="normal" in2="BackgroundImageFix" result="effect1_dropShadow_3_47"/>
<feBlend mode="normal" in="SourceGraphic" in2="effect1_dropShadow_3_47" result="shape"/>
</filter>
</defs>
</svg>
