<svg width="73" height="73" viewBox="0 0 73 73" fill="none" xmlns="http://www.w3.org/2000/svg">
<g id="GreenVault">
<path id="Vector" d="M35.1072 10.1502C34.5124 10.1759 34.066 10.1769 33.3756 10.2135C32.54 10.3599 31.9484 10.4705 31.3567 10.5811C21.3563 12.3359 14.5397 17.8715 11.1991 27.5434C10.7834 28.7468 10.3557 29.9475 9.886 31.1306C9.30794 32.5867 8.15425 33.1056 6.6737 32.8625C5.12355 32.6079 3.5808 32.2948 2.04914 31.9447C0.336462 31.5532 -0.283702 30.6287 0.117813 28.9335C2.11123 20.5172 6.23851 13.3997 13.1356 8.0539C20.2708 2.52352 28.4622 0.0323991 37.4211 9.90939e-05C39.3821 -0.00697105 41.3444 0.366031 43.4362 0.560597C47.6088 1.59118 51.4746 3.03927 55.0367 5.26175C60.2635 8.52281 64.1866 13.0409 67.5409 18.1096C68.7537 19.9423 68.3557 21.0304 66.3111 21.7891C66.1611 21.8448 65.9984 21.869 65.8525 21.9328C61.8119 23.7004 58.7755 22.904 55.804 19.3161C51.1901 13.7452 45.1094 10.3877 37.6518 10.0841C36.855 10.0516 36.0544 10.1095 35.1072 10.1502Z" fill="#64D68F"/>
<path id="Vector_2" d="M71.931 32.2695C73.2172 40.3991 71.3301 47.8302 67.275 54.7421C63.1594 61.7571 57.3244 66.9077 49.7291 70.176C48.7249 70.5189 47.8216 70.8429 46.8969 71.0848C45.6821 71.4025 44.972 70.8617 44.6566 69.6751C44.2188 68.0275 43.7411 66.3906 43.2874 64.7471C42.6725 62.52 43.0842 61.486 45.2406 60.7694C53.2113 58.1204 57.962 52.3571 60.926 44.8124C61.9345 42.2456 61.3346 41.319 58.6004 41.3283C52.1359 41.3501 45.6716 41.4099 39.2071 41.4283C36.2433 41.4368 35.8646 41.0397 35.8693 38.1113C35.8712 36.8828 35.8537 35.65 35.9477 34.427C36.0882 32.6002 36.9308 31.7571 38.7555 31.5206C39.4424 31.4316 40.1397 31.3853 40.8323 31.3845C50.3444 31.3746 59.8566 31.3558 69.3684 31.4103C70.1969 31.415 71.0225 31.921 71.931 32.2695Z" fill="#64D58F"/>
<path id="Vector_3" d="M8.78863 60.5597C4.62795 55.8969 2.02634 50.5367 0.519757 44.6126C0.414728 44.1997 0.28766 43.7888 0.226211 43.3688C-0.013584 41.73 0.689288 40.9622 2.3071 41.3314C6.17164 42.2133 10.011 43.2057 13.9793 44.1764C18.8029 46.4637 23.0829 49.3872 26.6227 53.2016C31.2492 58.1871 34.0906 64.1679 35.4107 70.8449C35.6989 72.3024 35.2724 72.7479 33.6572 72.6855C29.6745 72.5317 25.9324 71.3965 22.1944 70.0521C16.8433 68.1276 12.769 64.5322 8.78863 60.5597Z" fill="#66DC86"/>
</g>
</svg>
